<?xml version="1.0" standalone="no"?>
<!DOCTYPE svg PUBLIC "-//W3C//DTD SVG 20010904//EN"
 "http://www.w3.org/TR/2001/REC-SVG-20010904/DTD/svg10.dtd">
<svg version="1.0" xmlns="http://www.w3.org/2000/svg"
 width="192.000000pt" height="192.000000pt" viewBox="0 0 192.000000 192.000000"
 preserveAspectRatio="xMidYMid meet">
<metadata>
Created by potrace 1.11, written by Peter Selinger 2001-2013
</metadata>
<g transform="translate(0.000000,192.000000) scale(0.100000,-0.100000)"
fill="#000000" stroke="none">
<path d="M820 1912 c-72 -10 -195 -48 -268 -83 -239 -111 -417 -312 -501 -565
-39 -119 -43 -138 -46 -288 -6 -275 91 -512 287 -705 123 -122 313 -225 456
-247 20 -3 41 -8 46 -11 4 -3 61 -7 125 -9 112 -3 228 11 310 37 255 81 469
267 581 504 34 73 67 168 74 215 29 182 27 282 -9 436 -16 70 -28 102 -73 194
-130 269 -390 463 -690 515 -70 12 -229 16 -292 7z m693 -399 c-4 -9 -16 -37
-28 -62 -12 -25 -91 -196 -175 -378 -84 -183 -157 -333 -161 -333 -5 0 -57
-23 -116 -51 -60 -28 -133 -63 -163 -77 -30 -14 -58 -25 -62 -24 -5 1 -8 -3
-8 -8 0 -5 -3 -9 -7 -8 -8 2 -46 -15 -262 -118 -74 -35 -136 -63 -138 -61 -4
5 18 57 67 162 18 39 89 192 157 340 116 254 144 302 164 289 5 -3 9 0 9 5 0
6 4 11 9 11 5 0 62 25 126 55 65 31 136 64 159 75 55 25 331 155 381 180 49
24 56 25 48 3z"/>
<path d="M897 1046 c-106 -71 -10 -236 103 -179 41 20 64 74 51 119 -8 31 -41
72 -60 75 -41 7 -68 3 -94 -15z"/>
</g>
</svg>
